<svg xmlns="http://www.w3.org/2000/svg" xmlns:xlink="http://www.w3.org/1999/xlink" width="200" zoomAndPan="magnify" viewBox="0 0 150 149.999998" height="200" preserveAspectRatio="xMidYMid meet" version="1.0"><defs><filter x="0%" y="0%" width="100%" height="100%" id="b699114b28"><feColorMatrix values="0 0 0 0 1 0 0 0 0 1 0 0 0 0 1 0 0 0 1 0" color-interpolation-filters="sRGB"/></filter><g/><mask id="d3e86be937"><g filter="url(#b699114b28)"><rect x="-15" width="180" fill="#000000" y="-15" height="179.999997" fill-opacity="0.7"/></g></mask><clipPath id="57d55db2b5"><path d="M 0.777344 1.46875 L 91.527344 1.46875 L 91.527344 52.46875 L 0.777344 52.46875 Z M 0.777344 1.46875 " clip-rule="nonzero"/></clipPath><clipPath id="5b09e96989"><rect x="0" width="92" y="0" height="54"/></clipPath></defs><g mask="url(#d3e86be937)"><g transform="matrix(1, 0, 0, 1, 23, 48)"><g clip-path="url(#5b09e96989)"><g clip-path="url(#57d55db2b5)"><path fill="#ffffff" d="M 0.902344 33.363281 L 25.546875 33.589844 L 25.808594 33.398438 L 29.570312 22.089844 C 29.570312 22.089844 33.242188 39.777344 33.242188 39.777344 L 34.273438 39.828125 L 38.050781 28.410156 C 38.050781 28.410156 41.421875 33.675781 41.421875 33.675781 L 41.980469 33.980469 L 46.085938 34.003906 L 46.769531 33.402344 C 46.769531 33.402344 48.144531 23.203125 49.308594 14.367188 C 49.5625 12.46875 49.800781 10.636719 50.019531 8.980469 C 50.316406 12.558594 50.699219 17.125 51.109375 21.945312 C 52.3125 36.085938 53.761719 52.40625 53.761719 52.40625 L 54.816406 52.53125 L 62.621094 27.695312 C 62.621094 27.695312 66.421875 33.449219 66.421875 33.449219 L 66.625 33.558594 L 83.054688 33.402344 C 83.054688 33.402344 91.269531 33.316406 91.269531 33.316406 L 83.054688 33.230469 C 83.054688 33.230469 66.761719 33.074219 66.761719 33.074219 C 66.761719 33.074219 62.78125 26.796875 62.78125 26.796875 L 62.21875 26.871094 L 54.644531 49.617188 C 54.261719 44.394531 53.382812 32.488281 52.566406 21.828125 C 51.742188 11.027344 50.976562 1.507812 50.976562 1.507812 L 49.417969 1.46875 C 49.417969 1.46875 48.648438 7.421875 47.792969 14.171875 C 46.832031 21.746094 45.765625 30.324219 45.480469 32.632812 C 45.480469 32.632812 42.339844 32.648438 42.339844 32.648438 C 42.339844 32.648438 38.394531 26.628906 38.394531 26.628906 L 37.277344 26.773438 L 33.851562 37.609375 C 33.851562 37.609375 30.03125 20.539062 30.03125 20.539062 L 29.292969 20.5 L 25.347656 33.042969 C 25.347656 33.042969 0.902344 33.269531 0.902344 33.269531 L 0.855469 33.269531 L 0.855469 33.363281 Z M 0.902344 33.363281 " fill-opacity="1" fill-rule="evenodd"/></g></g></g></g><g fill="#0a66c2" fill-opacity="1"><g transform="translate(10.88934, 72.451908)"><g><path d="M 2.59375 -5.796875 C 1.832031 -4.804688 1.453125 -3.738281 1.453125 -2.59375 C 1.453125 -1.226562 2.03125 -0.164062 3.1875 0.59375 C 3.851562 1.039062 4.609375 1.265625 5.453125 1.265625 C 6.304688 1.265625 7.046875 1.097656 7.671875 0.765625 C 8.847656 0.148438 9.507812 -0.875 9.65625 -2.3125 C 9.664062 -2.414062 9.671875 -2.515625 9.671875 -2.609375 C 9.671875 -3.148438 9.519531 -3.734375 9.21875 -4.359375 C 8.925781 -4.984375 8.445312 -5.554688 7.78125 -6.078125 L 3.859375 -9.171875 C 3.003906 -9.835938 2.578125 -10.703125 2.578125 -11.765625 C 2.578125 -12.828125 2.914062 -13.722656 3.59375 -14.453125 C 4.28125 -15.191406 5.203125 -15.5625 6.359375 -15.5625 C 6.941406 -15.5625 7.578125 -15.488281 8.265625 -15.34375 L 9.140625 -15.34375 L 9.171875 -12.65625 L 8.953125 -12.65625 C 8.941406 -13.351562 8.691406 -13.898438 8.203125 -14.296875 C 7.710938 -14.703125 7.101562 -14.90625 6.375 -14.90625 C 5.644531 -14.90625 5.03125 -14.660156 4.53125 -14.171875 C 4.039062 -13.691406 3.796875 -13.066406 3.796875 -12.296875 C 3.796875 -11.535156 4.113281 -10.898438 4.75 -10.390625 L 8.78125 -7.21875 C 10.382812 -5.945312 11.1875 -4.421875 11.1875 -2.640625 C 11.1875 -1.296875 10.65625 -0.144531 9.59375 0.8125 C 8.675781 1.632812 7.453125 2.046875 5.921875 2.046875 C 4.992188 2.046875 4.164062 1.875 3.4375 1.53125 C 2.070312 0.882812 1.253906 -0.207031 0.984375 -1.75 C 0.941406 -1.976562 0.921875 -2.269531 0.921875 -2.625 C 0.921875 -2.976562 1.019531 -3.460938 1.21875 -4.078125 C 1.425781 -4.703125 1.816406 -5.328125 2.390625 -5.953125 Z M 2.59375 -5.796875 "/></g></g></g><g fill="#0a66c2" fill-opacity="1"><g transform="translate(22.637492, 72.451908)"><g><path d="M 5.796875 -0.21875 L 6.078125 -0.21875 L 6.078125 0 L 1.3125 0 L 1.3125 -0.21875 L 1.59375 -0.21875 C 1.96875 -0.21875 2.289062 -0.351562 2.5625 -0.625 C 2.832031 -0.894531 2.972656 -1.21875 2.984375 -1.59375 L 2.984375 -13.6875 C 2.972656 -14.0625 2.832031 -14.378906 2.5625 -14.640625 C 2.289062 -14.910156 1.96875 -15.046875 1.59375 -15.046875 L 1.3125 -15.046875 L 1.3125 -15.265625 L 6.078125 -15.265625 L 6.078125 -15.046875 L 5.796875 -15.046875 C 5.421875 -15.046875 5.097656 -14.910156 4.828125 -14.640625 C 4.554688 -14.378906 4.414062 -14.0625 4.40625 -13.6875 L 4.40625 -1.59375 C 4.40625 -1.21875 4.539062 -0.894531 4.8125 -0.625 C 5.09375 -0.351562 5.421875 -0.21875 5.796875 -0.21875 Z M 20.90625 3.265625 L 20.90625 3.484375 C 20.351562 3.617188 19.800781 3.6875 19.25 3.6875 C 16.863281 3.6875 14.550781 2.492188 12.3125 0.109375 L 5.09375 -7.578125 L 10.25 -14.03125 C 10.363281 -14.175781 10.421875 -14.304688 10.421875 -14.421875 C 10.421875 -14.546875 10.398438 -14.648438 10.359375 -14.734375 C 10.234375 -14.953125 10.019531 -15.0625 9.71875 -15.0625 L 9.5 -15.0625 L 9.5 -15.265625 L 14.109375 -15.265625 L 14.109375 -15.0625 L 14.015625 -15.0625 C 13.054688 -15.0625 12.269531 -14.71875 11.65625 -14.03125 L 6.578125 -8.171875 L 14 -0.265625 C 14.957031 0.765625 16.035156 1.609375 17.234375 2.265625 C 18.429688 2.929688 19.65625 3.265625 20.90625 3.265625 Z M 20.90625 3.265625 "/></g></g></g><g fill="#0a66c2" fill-opacity="1"><g transform="translate(37.001198, 72.451908)"><g><path d="M 7.015625 -0.21875 L 7.296875 -0.21875 L 7.296875 0 L 2.515625 0 L 2.515625 -0.21875 L 2.8125 -0.21875 C 3.1875 -0.21875 3.507812 -0.351562 3.78125 -0.625 C 4.0625 -0.894531 4.203125 -1.21875 4.203125 -1.59375 L 4.203125 -14.671875 L 1.875 -14.53125 C 0.40625 -14.445312 -0.328125 -13.921875 -0.328125 -12.953125 C -0.328125 -12.554688 -0.203125 -12.21875 0.046875 -11.9375 C 0.304688 -11.664062 0.710938 -11.515625 1.265625 -11.484375 L 1.265625 -11.359375 C 1.054688 -11.316406 0.847656 -11.296875 0.640625 -11.296875 C 0.00390625 -11.296875 -0.472656 -11.546875 -0.796875 -12.046875 C -0.984375 -12.335938 -1.078125 -12.660156 -1.078125 -13.015625 C -1.078125 -14.242188 -0.140625 -14.960938 1.734375 -15.171875 C 1.753906 -15.171875 2.476562 -15.21875 3.90625 -15.3125 C 5.332031 -15.40625 6.460938 -15.53125 7.296875 -15.6875 L 7.34375 -15.46875 C 6.71875 -15.375 6.273438 -15.164062 6.015625 -14.84375 C 5.753906 -14.519531 5.625 -14.078125 5.625 -13.515625 L 5.625 -1.59375 C 5.632812 -1.21875 5.773438 -0.894531 6.046875 -0.625 C 6.316406 -0.351562 6.640625 -0.21875 7.015625 -0.21875 Z M 7.015625 -0.21875 "/></g></g></g><g fill="#0a66c2" fill-opacity="1"><g transform="translate(45.349127, 72.451908)"><g><path d="M 5.453125 0.421875 C 8.546875 1.492188 10.863281 2.222656 12.40625 2.609375 C 13.957031 2.992188 15.285156 3.1875 16.390625 3.1875 C 17.503906 3.1875 18.734375 2.929688 20.078125 2.421875 L 20.1875 2.59375 C 18.414062 3.8125 16.628906 4.421875 14.828125 4.421875 C 12.972656 4.421875 10.867188 3.847656 8.515625 2.703125 C 6.703125 1.796875 5.578125 1.25 5.140625 1.0625 C 3.585938 0.363281 2.3125 0.0078125 1.3125 0 L 1.3125 -0.21875 L 1.59375 -0.21875 C 1.96875 -0.21875 2.289062 -0.347656 2.5625 -0.609375 C 2.832031 -0.867188 2.972656 -1.195312 2.984375 -1.59375 L 2.984375 -13.671875 C 2.972656 -14.046875 2.832031 -14.367188 2.5625 -14.640625 C 2.289062 -14.910156 1.96875 -15.046875 1.59375 -15.046875 L 1.3125 -15.046875 L 1.3125 -15.265625 L 6.078125 -15.265625 L 6.078125 -15.046875 L 5.796875 -15.046875 C 5.421875 -15.046875 5.09375 -14.910156 4.8125 -14.640625 C 4.539062 -14.367188 4.40625 -14.046875 4.40625 -13.671875 L 4.40625 -1.09375 C 4.40625 -0.832031 4.414062 -0.628906 4.4375 -0.484375 C 4.46875 -0.347656 4.5625 -0.191406 4.71875 -0.015625 C 4.882812 0.148438 5.128906 0.296875 5.453125 0.421875 Z M 5.453125 0.421875 "/></g></g></g><g fill="#0a66c2" fill-opacity="1"><g transform="translate(53.871427, 72.451908)"><g><path d="M 5.453125 0.421875 C 8.546875 1.492188 10.863281 2.222656 12.40625 2.609375 C 13.957031 2.992188 15.285156 3.1875 16.390625 3.1875 C 17.503906 3.1875 18.734375 2.929688 20.078125 2.421875 L 20.1875 2.59375 C 18.414062 3.8125 16.628906 4.421875 14.828125 4.421875 C 12.972656 4.421875 10.867188 3.847656 8.515625 2.703125 C 6.703125 1.796875 5.578125 1.25 5.140625 1.0625 C 3.585938 0.363281 2.3125 0.0078125 1.3125 0 L 1.3125 -0.21875 L 1.59375 -0.21875 C 1.96875 -0.21875 2.289062 -0.347656 2.5625 -0.609375 C 2.832031 -0.867188 2.972656 -1.195312 2.984375 -1.59375 L 2.984375 -13.671875 C 2.972656 -14.046875 2.832031 -14.367188 2.5625 -14.640625 C 2.289062 -14.910156 1.96875 -15.046875 1.59375 -15.046875 L 1.3125 -15.046875 L 1.3125 -15.265625 L 6.078125 -15.265625 L 6.078125 -15.046875 L 5.796875 -15.046875 C 5.421875 -15.046875 5.09375 -14.910156 4.8125 -14.640625 C 4.539062 -14.367188 4.40625 -14.046875 4.40625 -13.671875 L 4.40625 -1.09375 C 4.40625 -0.832031 4.414062 -0.628906 4.4375 -0.484375 C 4.46875 -0.347656 4.5625 -0.191406 4.71875 -0.015625 C 4.882812 0.148438 5.128906 0.296875 5.453125 0.421875 Z M 5.453125 0.421875 "/></g></g></g><g fill="#0a66c2" fill-opacity="1"><g transform="translate(62.399073, 72.451908)"><g/></g></g><g fill="#0a66c2" fill-opacity="1"><g transform="translate(67.63013, 72.451908)"><g/></g></g><g fill="#0a66c2" fill-opacity="1"><g transform="translate(72.861187, 72.451908)"><g/></g></g><g fill="#0a66c2" fill-opacity="1"><g transform="translate(78.092428, 72.451908)"><g><path d="M 2.59375 -5.796875 C 1.832031 -4.804688 1.453125 -3.738281 1.453125 -2.59375 C 1.453125 -1.226562 2.03125 -0.164062 3.1875 0.59375 C 3.851562 1.039062 4.609375 1.265625 5.453125 1.265625 C 6.304688 1.265625 7.046875 1.097656 7.671875 0.765625 C 8.847656 0.148438 9.507812 -0.875 9.65625 -2.3125 C 9.664062 -2.414062 9.671875 -2.515625 9.671875 -2.609375 C 9.671875 -3.148438 9.519531 -3.734375 9.21875 -4.359375 C 8.925781 -4.984375 8.445312 -5.554688 7.78125 -6.078125 L 3.859375 -9.171875 C 3.003906 -9.835938 2.578125 -10.703125 2.578125 -11.765625 C 2.578125 -12.828125 2.914062 -13.722656 3.59375 -14.453125 C 4.28125 -15.191406 5.203125 -15.5625 6.359375 -15.5625 C 6.941406 -15.5625 7.578125 -15.488281 8.265625 -15.34375 L 9.140625 -15.34375 L 9.171875 -12.65625 L 8.953125 -12.65625 C 8.941406 -13.351562 8.691406 -13.898438 8.203125 -14.296875 C 7.710938 -14.703125 7.101562 -14.90625 6.375 -14.90625 C 5.644531 -14.90625 5.03125 -14.660156 4.53125 -14.171875 C 4.039062 -13.691406 3.796875 -13.066406 3.796875 -12.296875 C 3.796875 -11.535156 4.113281 -10.898438 4.75 -10.390625 L 8.78125 -7.21875 C 10.382812 -5.945312 11.1875 -4.421875 11.1875 -2.640625 C 11.1875 -1.296875 10.65625 -0.144531 9.59375 0.8125 C 8.675781 1.632812 7.453125 2.046875 5.921875 2.046875 C 4.992188 2.046875 4.164062 1.875 3.4375 1.53125 C 2.070312 0.882812 1.253906 -0.207031 0.984375 -1.75 C 0.941406 -1.976562 0.921875 -2.269531 0.921875 -2.625 C 0.921875 -2.976562 1.019531 -3.460938 1.21875 -4.078125 C 1.425781 -4.703125 1.816406 -5.328125 2.390625 -5.953125 Z M 2.59375 -5.796875 "/></g></g></g><g fill="#0a66c2" fill-opacity="1"><g transform="translate(89.840581, 72.451908)"><g><path d="M -0.875 -16.5 C -0.769531 -16.5 -0.585938 -16.5 -0.328125 -16.5 C -0.0664062 -16.5 0.285156 -16.453125 0.734375 -16.359375 C 1.191406 -16.273438 1.613281 -16.148438 2 -15.984375 C 2.382812 -15.816406 2.757812 -15.578125 3.125 -15.265625 C 3.5 -14.953125 3.816406 -14.660156 4.078125 -14.390625 C 4.335938 -14.128906 4.601562 -13.78125 4.875 -13.34375 C 5.144531 -12.90625 5.363281 -12.53125 5.53125 -12.21875 C 5.695312 -11.914062 5.878906 -11.519531 6.078125 -11.03125 C 6.335938 -10.40625 6.546875 -9.863281 6.703125 -9.40625 C 6.867188 -8.945312 6.957031 -8.695312 6.96875 -8.65625 C 6.988281 -8.613281 7.015625 -8.5625 7.046875 -8.5 C 7.085938 -8.382812 7.125 -8.285156 7.15625 -8.203125 C 7.195312 -8.296875 7.296875 -8.5625 7.453125 -9 C 7.609375 -9.4375 7.753906 -9.828125 7.890625 -10.171875 C 8.035156 -10.523438 8.253906 -11.019531 8.546875 -11.65625 C 8.835938 -12.300781 9.101562 -12.804688 9.34375 -13.171875 C 9.582031 -13.546875 9.890625 -13.972656 10.265625 -14.453125 C 10.640625 -14.929688 11.019531 -15.300781 11.40625 -15.5625 C 12.332031 -16.1875 13.316406 -16.5 14.359375 -16.5 L 14.359375 -16.28125 C 13.546875 -16.28125 12.710938 -15.847656 11.859375 -14.984375 C 11.015625 -14.128906 10.289062 -13.09375 9.6875 -11.875 C 9.082031 -10.664062 8.585938 -9.410156 8.203125 -8.109375 C 7.816406 -6.816406 7.625 -5.710938 7.625 -4.796875 L 7.625 -1.59375 C 7.625 -1.070312 7.847656 -0.679688 8.296875 -0.421875 C 8.515625 -0.285156 8.757812 -0.21875 9.03125 -0.21875 L 9.28125 -0.21875 L 9.28125 0 L 4.53125 0 L 4.53125 -0.21875 L 4.8125 -0.21875 C 5.175781 -0.21875 5.492188 -0.347656 5.765625 -0.609375 C 6.046875 -0.867188 6.195312 -1.1875 6.21875 -1.5625 L 6.21875 -4.8125 C 6.21875 -5.789062 6.007812 -6.929688 5.59375 -8.234375 C 5.1875 -9.546875 4.664062 -10.800781 4.03125 -12 C 3.394531 -13.195312 2.632812 -14.207031 1.75 -15.03125 C 0.863281 -15.863281 -0.0078125 -16.28125 -0.875 -16.28125 Z M -0.875 -16.5 "/></g></g></g><g fill="#0a66c2" fill-opacity="1"><g transform="translate(103.092677, 72.451908)"><g><path d="M 22.984375 3.3125 C 21.828125 3.675781 20.78125 3.742188 19.84375 3.515625 C 18.875 3.242188 18.035156 2.832031 17.328125 2.28125 C 16.640625 1.726562 15.941406 1.070312 15.234375 0.3125 L 3.75 -12.421875 L 3.75 -1.53125 C 3.757812 -1.019531 3.984375 -0.640625 4.421875 -0.390625 C 4.617188 -0.273438 4.835938 -0.21875 5.078125 -0.21875 L 5.484375 -0.21875 L 5.484375 0 L 1 0 L 1 -0.21875 L 1.40625 -0.21875 C 1.769531 -0.21875 2.082031 -0.34375 2.34375 -0.59375 C 2.601562 -0.851562 2.734375 -1.171875 2.734375 -1.546875 L 2.734375 -13.515625 C 2.660156 -13.617188 2.515625 -13.8125 2.296875 -14.09375 C 2.085938 -14.375 1.910156 -14.601562 1.765625 -14.78125 C 1.617188 -14.957031 1.421875 -15.1875 1.171875 -15.46875 C 0.921875 -15.75 0.691406 -15.972656 0.484375 -16.140625 C 0.273438 -16.316406 0.03125 -16.523438 -0.25 -16.765625 C -0.6875 -17.097656 -1.148438 -17.335938 -1.640625 -17.484375 C -2.128906 -17.628906 -2.546875 -17.703125 -2.890625 -17.703125 C -3.234375 -17.703125 -3.601562 -17.644531 -4 -17.53125 L -4.078125 -17.75 C -3.378906 -18.03125 -2.707031 -18.171875 -2.0625 -18.171875 C -1.414062 -18.171875 -0.859375 -18.09375 -0.390625 -17.9375 C 0.0664062 -17.789062 0.5625 -17.519531 1.09375 -17.125 C 1.632812 -16.738281 2.078125 -16.378906 2.421875 -16.046875 C 2.765625 -15.710938 3.175781 -15.273438 3.65625 -14.734375 L 14.640625 -2.53125 L 14.640625 -13.703125 C 14.628906 -14.085938 14.488281 -14.40625 14.21875 -14.65625 C 13.957031 -14.914062 13.648438 -15.046875 13.296875 -15.046875 L 12.875 -15.046875 L 12.875 -15.265625 L 17.359375 -15.265625 L 17.359375 -15.046875 L 16.96875 -15.046875 C 16.601562 -15.046875 16.289062 -14.914062 16.03125 -14.65625 C 15.769531 -14.40625 15.632812 -14.097656 15.625 -13.734375 L 15.625 -1.421875 C 15.769531 -1.253906 15.972656 -1.007812 16.234375 -0.6875 C 16.503906 -0.375 16.691406 -0.148438 16.796875 -0.015625 C 16.910156 0.109375 17.078125 0.296875 17.296875 0.546875 C 17.515625 0.796875 17.695312 0.988281 17.84375 1.125 C 18 1.257812 18.191406 1.429688 18.421875 1.640625 C 18.648438 1.859375 18.859375 2.023438 19.046875 2.140625 C 19.242188 2.265625 19.46875 2.410156 19.71875 2.578125 C 20.070312 2.773438 20.46875 2.925781 20.90625 3.03125 C 21.351562 3.132812 21.71875 3.1875 22 3.1875 C 22.28125 3.1875 22.582031 3.15625 22.90625 3.09375 Z M 22.984375 3.3125 "/></g></g></g><g fill="#0a66c2" fill-opacity="1"><g transform="translate(121.205346, 72.451908)"><g><path d="M 17.375 -7.65625 C 17.375 -5.15625 16.703125 -3.203125 15.359375 -1.796875 C 14.015625 -0.390625 12.113281 0.3125 9.65625 0.3125 C 8 0.3125 6.503906 -0.0351562 5.171875 -0.734375 C 3.847656 -1.429688 2.816406 -2.382812 2.078125 -3.59375 C 1.347656 -4.800781 0.984375 -6.148438 0.984375 -7.640625 C 0.984375 -9.128906 1.34375 -10.476562 2.0625 -11.6875 C 2.789062 -12.894531 3.796875 -13.84375 5.078125 -14.53125 C 6.359375 -15.21875 7.78125 -15.5625 9.34375 -15.5625 C 10.332031 -15.5625 11.335938 -15.425781 12.359375 -15.15625 C 13.390625 -14.882812 14.25 -14.523438 14.9375 -14.078125 L 15.359375 -11 L 15.171875 -11 C 14.867188 -12.226562 14.164062 -13.1875 13.0625 -13.875 C 11.957031 -14.5625 10.726562 -14.90625 9.375 -14.90625 C 7.4375 -14.90625 5.820312 -14.21875 4.53125 -12.84375 C 3.25 -11.476562 2.609375 -9.753906 2.609375 -7.671875 C 2.609375 -5.597656 3.273438 -3.859375 4.609375 -2.453125 C 5.941406 -1.046875 7.679688 -0.34375 9.828125 -0.34375 C 11.984375 -0.34375 13.738281 -1.039062 15.09375 -2.4375 C 16.445312 -3.832031 17.125 -5.742188 17.125 -8.171875 L 17.34375 -8.171875 C 17.363281 -7.992188 17.375 -7.820312 17.375 -7.65625 Z M 17.375 -7.65625 "/></g></g></g></svg>